<svg width="42" height="38" viewBox="0 0 42 38" fill="none" xmlns="http://www.w3.org/2000/svg">
<path fill-rule="evenodd" clip-rule="evenodd" d="M6.83506 37.4925H35.4881C37.7926 37.4925 39.4299 36.4876 40.4246 35.1061C41.3415 33.8311 41.628 32.3636 41.628 31.3526V19.0727C41.628 18.5299 41.4124 18.0094 41.0285 17.6255C40.6447 17.2417 40.1241 17.0261 39.5813 17.0261H33.4414V6.79288C33.4414 5.16447 32.7945 3.60276 31.6431 2.4513C30.4916 1.29984 28.9299 0.652954 27.3015 0.652954H6.83506C5.20665 0.652954 3.64493 1.29984 2.49347 2.4513C1.34201 3.60276 0.695129 5.16447 0.695129 6.79288V31.3526C0.695129 32.3616 0.981659 33.8311 1.89856 35.1061C2.89322 36.4897 4.53054 37.4925 6.83506 37.4925ZM35.4881 21.1194C36.0309 21.1194 36.5514 21.335 36.9353 21.7188C37.3191 22.1027 37.5347 22.6232 37.5347 23.166V31.3526C37.5347 31.8954 37.3191 32.416 36.9353 32.7998C36.5514 33.1836 36.0309 33.3992 35.4881 33.3992C34.9453 33.3992 34.4247 33.1836 34.0409 32.7998C33.657 32.416 33.4414 31.8954 33.4414 31.3526V23.166C33.4414 22.6232 33.657 22.1027 34.0409 21.7188C34.4247 21.335 34.9453 21.1194 35.4881 21.1194ZM15.0216 14.9795C15.0216 14.4367 15.2373 13.9161 15.6211 13.5323C16.0049 13.1484 16.5255 12.9328 17.0683 12.9328C17.6111 12.9328 18.1316 13.1484 18.5155 13.5323C18.8993 13.9161 19.1149 14.4367 19.1149 14.9795C19.1149 15.5223 18.8993 16.0428 18.5155 16.4266C18.1316 16.8105 17.6111 17.0261 17.0683 17.0261C16.5255 17.0261 16.0049 16.8105 15.6211 16.4266C15.2373 16.0428 15.0216 15.5223 15.0216 14.9795ZM17.0683 8.83953C15.4399 8.83953 13.8781 9.48641 12.7267 10.6379C11.5752 11.7893 10.9283 13.351 10.9283 14.9795C10.9283 16.6079 11.5752 18.1696 12.7267 19.321C13.8781 20.4725 15.4399 21.1194 17.0683 21.1194C18.6967 21.1194 20.2584 20.4725 21.4099 19.321C22.5613 18.1696 23.2082 16.6079 23.2082 14.9795C23.2082 13.351 22.5613 11.7893 21.4099 10.6379C20.2584 9.48641 18.6967 8.83953 17.0683 8.83953ZM10.9283 25.2127C10.3855 25.2127 9.86497 25.4283 9.48115 25.8121C9.09733 26.1959 8.8817 26.7165 8.8817 27.2593C8.8817 27.8021 9.09733 28.3227 9.48115 28.7065C9.86497 29.0903 10.3855 29.306 10.9283 29.306H23.2082C23.751 29.306 24.2716 29.0903 24.6554 28.7065C25.0392 28.3227 25.2548 27.8021 25.2548 27.2593C25.2548 26.7165 25.0392 26.1959 24.6554 25.8121C24.2716 25.4283 23.751 25.2127 23.2082 25.2127H10.9283Z" fill="white"/>
</svg>
