<svg width="66" height="66" viewBox="0 0 66 66" fill="none" xmlns="http://www.w3.org/2000/svg">
<path fill-rule="evenodd" clip-rule="evenodd" d="M17.2503 21.1041L12.2424 16.6525C11.4417 15.9411 10.9826 14.9187 10.9826 13.8469V13.7239C10.9826 12.8002 11.3422 11.9322 11.9956 11.2788C12.5621 10.7123 13.3158 10.4005 14.1165 10.4005C14.9172 10.4005 15.6708 10.7123 16.2373 11.2788L17.2503 12.2918L18.2633 11.2787C19.3962 10.1466 21.3721 10.1466 22.5049 11.2787C23.1583 11.9322 23.518 12.8002 23.518 13.7239V13.8469C23.518 14.9179 23.0588 15.9411 22.2582 16.6525L17.2503 21.1041ZM25.0849 13.847V13.724C25.0849 12.3819 24.5623 11.1205 23.6128 10.171C22.751 9.30839 21.604 8.83362 20.3842 8.83362C19.209 8.83362 18.1012 9.27471 17.2503 10.0785C16.3995 9.27471 15.2917 8.83362 14.1165 8.83362C12.8967 8.83362 11.7497 9.30839 10.8879 10.171C9.93833 11.1205 9.41577 12.3819 9.41577 13.724V13.847C9.41577 15.3653 10.0668 16.8147 11.2013 17.823L17.2503 23.2007L23.2986 17.8238C24.4339 16.8155 25.0849 15.3661 25.0849 13.847L25.0849 13.847Z" fill="white"/>
<path fill-rule="evenodd" clip-rule="evenodd" d="M63.521 34.7682C63.521 35.3487 63.0488 35.8198 62.4694 35.8198H50.4096L45.2651 41.9917C45.0569 42.2399 44.5921 42.0727 44.5921 41.7488V35.8198H30.9212C30.3418 35.8198 29.8696 35.3487 29.8696 34.7682V29.5102H30.9212C32.6606 29.5102 34.076 28.0947 34.076 26.3554V10.5813H62.4694C63.0488 10.5813 63.521 11.0524 63.521 11.6329L63.521 34.7682ZM38.2824 55.8004C38.2824 56.3809 37.8103 56.852 37.2308 56.852H23.56V62.781C23.56 63.1059 23.0951 63.2742 22.8869 63.0239L17.7425 56.852H5.68265C5.10322 56.852 4.63105 56.3809 4.63105 55.8004V34.7683C4.63105 34.1878 5.10323 33.7167 5.68265 33.7167H16.0567L17.0652 34.9261C17.5385 35.4939 18.2336 35.8199 18.9729 35.8199C20.2116 35.8199 21.2328 34.905 21.4178 33.7167H27.7664V34.7683C27.7664 36.5077 29.1818 37.9231 30.9212 37.9231H38.2824L38.2824 55.8004ZM27.7664 31.6135H21.4568V29.5102H27.7664V31.6135ZM3.57947 27.407C3.00004 27.407 2.52787 26.9359 2.52787 26.3554V3.22005C2.52787 2.63957 3.00005 2.16845 3.57947 2.16845H30.9212C31.5007 2.16845 31.9728 2.63957 31.9728 3.22005V26.3554C31.9728 26.9359 31.5007 27.407 30.9212 27.407H19.3536V33.3359C19.3536 33.6609 18.8888 33.8291 18.6805 33.5789L13.5361 27.407H3.57947ZM62.4694 8.47815H34.076V3.22012C34.076 1.48077 32.6605 0.0653076 30.9212 0.0653076H3.57944C1.84008 0.0653076 0.424622 1.48077 0.424622 3.22012V26.3555C0.424622 28.0948 1.84008 29.5103 3.57944 29.5103H12.5517L14.3048 31.6135H5.68265C3.94329 31.6135 2.52784 33.0289 2.52784 34.7683V55.8004C2.52784 57.5398 3.94329 58.9552 5.68265 58.9552H16.7582L21.2717 64.371C21.7449 64.9389 22.44 65.2649 23.1793 65.2649C24.5485 65.2649 25.6632 64.1502 25.6632 62.781V58.9552H37.2308C38.9702 58.9552 40.3856 57.5398 40.3856 55.8004V37.9231H42.4889V41.7489C42.4889 43.118 43.6036 44.2327 44.9728 44.2327C45.712 44.2327 46.4071 43.9068 46.8804 43.3389L51.3939 37.9231H62.4694C64.2087 37.9231 65.6242 36.5077 65.6242 34.7683V11.633C65.6242 9.89361 64.2087 8.47815 62.4694 8.47815Z" fill="#EC6C1F"/>
<path fill-rule="evenodd" clip-rule="evenodd" d="M29.1024 44.8226C29.1024 45.6659 28.4166 46.3518 27.5733 46.3518C26.7299 46.3518 26.0441 45.6659 26.0441 44.8226C26.0441 43.9793 26.7299 43.2935 27.5733 43.2935C28.4166 43.2935 29.1024 43.9793 29.1024 44.8226ZM19.9276 43.2935C19.9276 42.4501 20.6134 41.7643 21.4567 41.7643C22.3001 41.7643 22.9859 42.4501 22.9859 43.2935C22.9859 44.1368 22.3001 44.8226 21.4567 44.8226C20.6134 44.8226 19.9276 44.1368 19.9276 43.2935ZM13.811 44.8226C13.811 43.9793 14.4969 43.2935 15.3402 43.2935C16.1835 43.2935 16.8693 43.9793 16.8693 44.8226C16.8693 45.6659 16.1835 46.3518 15.3402 46.3518C14.4969 46.3518 13.811 45.6659 13.811 44.8226ZM24.515 44.8227C24.515 45.2761 24.6206 45.7027 24.7979 46.0896C24.4684 45.7975 24.1014 45.5482 23.7046 45.3502C24.2031 44.8058 24.515 44.0879 24.515 43.2935C24.515 41.6069 23.1434 40.2352 21.4568 40.2352C19.7701 40.2352 18.3985 41.6069 18.3985 43.2935C18.3985 44.0879 18.7104 44.8058 19.2089 45.3502C18.8121 45.5482 18.4451 45.7975 18.1156 46.0895C18.2929 45.7027 18.3985 45.276 18.3985 44.8227C18.3985 43.136 17.0268 41.7644 15.3402 41.7644C13.6535 41.7644 12.2819 43.136 12.2819 44.8227C12.2819 45.6377 12.6068 46.374 13.1283 46.9229C11.7138 47.7051 10.7527 49.2113 10.7527 50.9392V52.4684H12.2819V50.9392C12.2819 49.2526 13.6535 47.8809 15.3402 47.8809C15.8219 47.8809 16.2837 47.9956 16.7042 48.2059C16.5834 48.5553 16.4947 48.9208 16.4519 49.3023L16.1093 52.3835L17.6285 52.5525L17.9711 49.4713C18.1691 47.6929 19.6676 46.3518 21.4567 46.3518C23.2458 46.3518 24.7444 47.6929 24.9424 49.4713L25.285 52.5525L26.8042 52.3835L26.4616 49.3023C26.4196 48.9208 26.3301 48.5553 26.2093 48.2059C26.6298 47.9956 27.0916 47.8809 27.5733 47.8809C29.26 47.8809 30.6316 49.2526 30.6316 50.9392V52.4684H32.1608V50.9392C32.1608 49.2113 31.1997 47.7051 29.7852 46.9229C30.3067 46.374 30.6316 45.6377 30.6316 44.8226C30.6316 43.136 29.26 41.7644 27.5733 41.7644C25.8867 41.7644 24.515 43.136 24.515 44.8226V44.8227Z" fill="white"/>
<path fill-rule="evenodd" clip-rule="evenodd" d="M54.2121 27.5108C54.2121 28.3031 53.5677 28.9475 52.7754 28.9475H49.6182C48.1923 28.9475 46.8095 28.5588 45.5919 27.8283V22.0613L46.2355 21.4177C47.1787 20.4745 47.8489 19.2914 48.1722 17.9976C48.2519 17.678 48.5385 17.4538 48.869 17.4538C49.2734 17.4538 49.6556 17.6306 49.917 17.9402C50.1785 18.2491 50.2906 18.6549 50.2238 19.0543L49.7727 21.764H52.7754C53.5677 21.764 54.2121 22.4083 54.2121 23.2007V27.5108ZM41.2818 28.9475V21.764H44.1552L44.1559 28.9475H41.2818ZM52.7754 20.3272H51.4679L51.6411 19.2899C51.7768 18.4731 51.5484 17.6427 51.0132 17.0113C50.4781 16.3791 49.6965 16.0171 48.869 16.0171C47.8783 16.0171 47.0185 16.6887 46.7778 17.6492C46.5178 18.6908 45.979 19.6419 45.2197 20.4019L45.0078 20.6138C44.7686 20.4364 44.4755 20.3272 44.1551 20.3272H41.2817C40.4894 20.3272 39.845 20.9716 39.845 21.7639V28.9474C39.845 29.7397 40.4894 30.3841 41.2817 30.3841H44.1551C44.7823 30.3841 45.3102 29.9782 45.5063 29.4172C46.7807 30.0493 48.1808 30.3841 49.6182 30.3841H52.7753C54.36 30.3841 55.6487 29.0954 55.6487 27.5107V23.2006C55.6487 21.6159 54.36 20.3272 52.7753 20.3272L52.7754 20.3272Z" fill="white"/>
</svg>
