<svg width="22" height="25" viewBox="0 0 22 25" fill="none" xmlns="http://www.w3.org/2000/svg">
<g clip-path="url(#clip0_19_4)">
<path d="M18.3308 4.67298C16.3144 2.65173 13.629 1.54004 10.7752 1.54004C4.88469 1.54004 0.0914375 6.33329 0.0914375 12.2238C0.0914375 14.1055 0.582313 15.9439 1.51594 17.5657L0 23.1L5.66431 21.613C7.22356 22.4648 8.98012 22.9124 10.7704 22.9124H10.7752C16.6609 22.9124 21.56 18.1191 21.56 12.2286C21.56 9.37479 20.3472 6.69423 18.3308 4.67298ZM10.7752 21.1125C9.17744 21.1125 7.61337 20.6842 6.25144 19.8757L5.929 19.6832L2.56988 20.5639L3.465 17.2865L3.25325 16.9497C2.36294 15.5348 1.89613 13.9034 1.89613 12.2238C1.89613 7.32948 5.88087 3.34473 10.78 3.34473C13.1526 3.34473 15.3807 4.26873 17.0555 5.94829C18.7302 7.62785 19.7601 9.85604 19.7553 12.2286C19.7553 17.1277 15.6695 21.1125 10.7752 21.1125ZM15.6454 14.4616C15.3807 14.3269 14.0669 13.682 13.8215 13.5954C13.5761 13.5039 13.398 13.4606 13.2199 13.7301C13.0419 13.9996 12.5317 14.5964 12.3729 14.7792C12.2189 14.9573 12.0601 14.9814 11.7954 14.8466C10.2266 14.0622 9.19669 13.4462 8.162 11.6704C7.88769 11.1987 8.43631 11.2324 8.94644 10.2122C9.03306 10.0341 8.98975 9.8801 8.92237 9.74535C8.855 9.6106 8.32081 8.29679 8.09944 7.7626C7.88287 7.24285 7.6615 7.31504 7.49787 7.30541C7.34387 7.29579 7.16581 7.29579 6.98775 7.29579C6.80969 7.29579 6.52094 7.36316 6.2755 7.62785C6.03006 7.89735 5.34187 8.54223 5.34187 9.85604C5.34187 11.1699 6.29956 12.4404 6.4295 12.6184C6.56425 12.7965 8.31119 15.4915 10.9917 16.6513C12.6857 17.3828 13.3499 17.4454 14.1969 17.3202C14.7118 17.2432 15.7754 16.6754 15.9967 16.0497C16.2181 15.4241 16.2181 14.8899 16.1507 14.7792C16.0882 14.6589 15.9101 14.5915 15.6454 14.4616Z" fill="#D9D9D9"/>
</g>
<defs>
<clipPath id="clip0_19_4">
<rect width="21.56" height="24.64" fill="white"/>
</clipPath>
</defs>
</svg>
