<svg width="75" height="69" viewBox="0 0 75 69" fill="none" xmlns="http://www.w3.org/2000/svg">
<path fill-rule="evenodd" clip-rule="evenodd" d="M61.0511 66.1221V20.1385H70.9837V66.1221H61.0511ZM42.4275 66.1221V30.0809H52.3601V66.1221H42.4275ZM23.8038 66.1221V40.0233H33.7364V66.1221H23.8038ZM5.18018 66.1222V51.2086H15.1128V66.1222H5.18018ZM73.4669 66.1221V17.653H58.568V66.1221H54.8432V27.5953H39.9443V66.1221H36.2196V37.5377H21.3207V66.1221H17.5959V48.7229H2.69703V66.1221H1.45546C0.770105 66.1221 0.213882 66.6776 0.213882 67.3649C0.213882 68.0522 0.770105 68.6077 1.45546 68.6077H2.69703H17.5959H21.3207H36.2196H39.9443H54.8432H58.568H73.4669C74.1522 68.6077 74.7085 68.0522 74.7085 67.3649C74.7085 66.6776 74.1522 66.1221 73.4669 66.1221Z" fill="#EC6C1F"/>
<path fill-rule="evenodd" clip-rule="evenodd" d="M10.1589 31.6799C10.3681 31.6799 10.5823 31.6266 10.7766 31.514L55.6782 5.58995L52.8679 11.7676C52.5844 12.3904 52.8592 13.1245 53.4819 13.4068C53.6478 13.4835 53.8224 13.5182 53.9945 13.5182C54.4649 13.5182 54.9143 13.2483 55.1223 12.7927L59.5321 3.09907C59.5457 3.06812 59.5433 3.03469 59.5544 3.0025C59.5779 2.93689 59.5965 2.87375 59.6089 2.80443C59.6151 2.76977 59.6349 2.74129 59.6373 2.70539C59.6386 2.69053 59.6324 2.67816 59.6336 2.6633C59.6361 2.61625 59.6312 2.57293 59.6287 2.52587C59.625 2.45778 59.6138 2.3934 59.599 2.32532C59.5891 2.27828 59.5866 2.22999 59.5705 2.18419C59.5556 2.13962 59.5297 2.10248 59.5098 2.05915C59.4937 2.03068 59.4937 1.99725 59.4764 1.96754C59.4591 1.93783 59.4294 1.92049 59.4096 1.89202C59.3836 1.85364 59.3638 1.81278 59.3328 1.77812C59.3006 1.74098 59.2598 1.71498 59.2226 1.68155C59.1719 1.63575 59.1211 1.59366 59.0642 1.55651C59.0258 1.53175 58.9911 1.50452 58.949 1.48347C58.9354 1.47728 58.928 1.46489 58.9144 1.4587C58.8834 1.44508 58.85 1.44756 58.819 1.43641C58.7509 1.41165 58.6841 1.39432 58.6135 1.38194C58.5813 1.37575 58.5553 1.35718 58.5219 1.3547L47.922 0.327153C47.2349 0.257822 46.6357 0.760456 46.5701 1.43889C46.5033 2.1198 47.0022 2.72519 47.6819 2.79081L54.4365 3.44571L9.53866 29.3697C8.94565 29.7114 8.74385 30.4691 9.08554 31.0609C9.31457 31.4583 9.73054 31.6799 10.1589 31.6799H10.1589Z" fill="white"/>
</svg>
