<svg width="35" height="34" viewBox="0 0 35 34" fill="none" xmlns="http://www.w3.org/2000/svg">
<path d="M18.1849 0.839966C17.9135 0.839966 17.6533 0.94778 17.4613 1.13969C17.2694 1.3316 17.1616 1.59188 17.1616 1.86328V7.18454C17.1616 10.0028 19.0589 12.3748 21.6438 13.0993C21.1935 18.7071 19.5726 22.8925 18.2443 25.4733C18.6209 25.9154 18.9749 26.2449 19.2512 26.4762C20.3134 27.3644 21.2549 28.8114 21.2549 30.6165C21.2563 31.6851 20.9148 32.726 20.2807 33.5862H31.4881C32.3023 33.5862 33.0831 33.2627 33.6589 32.687C34.2346 32.1113 34.558 31.3304 34.558 30.5162V29.8879C34.558 29.1757 34.3145 28.5187 33.94 27.9804C32.8348 26.3902 29.7055 21.247 29.0505 13.0973C30.3406 12.7357 31.477 11.9622 32.2865 10.8947C33.0961 9.82721 33.5344 8.52429 33.5347 7.18454V1.86328C33.5347 1.59188 33.4269 1.3316 33.235 1.13969C33.0431 0.94778 32.7828 0.839966 32.5114 0.839966H30.9764C30.5693 0.839966 30.1789 1.00169 29.891 1.28955C29.6032 1.57741 29.4414 1.96784 29.4414 2.37494V3.90992C29.4417 4.04431 29.4155 4.17743 29.3643 4.30169C29.3132 4.42594 29.238 4.5389 29.1432 4.63412C28.9516 4.82641 28.6916 4.93475 28.4202 4.93529C28.1488 4.93583 27.8883 4.82854 27.696 4.63701C27.5037 4.44549 27.3954 4.18542 27.3948 3.91402V3.90992L27.3866 2.36676C27.3845 1.96108 27.2218 1.57275 26.9342 1.28665C26.6465 1.00056 26.2573 0.83996 25.8516 0.839966H24.8447C24.439 0.83996 24.0498 1.00056 23.7622 1.28665C23.4746 1.57275 23.3119 1.96108 23.3097 2.36676L23.3015 3.91402C23.301 4.18542 23.1927 4.44549 23.0004 4.63701C22.8081 4.82854 22.5476 4.93583 22.2762 4.93529C22.0048 4.93475 21.7447 4.82641 21.5532 4.63412C21.3616 4.44182 21.2544 4.18132 21.2549 3.90992V2.37494C21.2549 1.96784 21.0932 1.57741 20.8053 1.28955C20.5174 1.00169 20.127 0.839966 19.7199 0.839966H18.1849ZM9.99839 6.97988C8.81313 6.97991 7.65322 7.32299 6.65866 7.96772C5.6641 8.61245 4.87741 9.53126 4.39355 10.6132C3.90968 11.6952 3.74933 12.8941 3.93184 14.0653C4.11435 15.2364 4.63193 16.3296 5.4221 17.2131H4.88179C4.33899 17.2131 3.81842 17.4287 3.4346 17.8125C3.05078 18.1963 2.83515 18.7169 2.83515 19.2597C2.83515 19.8025 3.05078 20.3231 3.4346 20.7069C3.81842 21.0907 4.33899 21.3063 4.88179 21.3063H5.94604C5.18469 24.9862 3.17694 27.1106 2.05743 28.0459C1.34929 28.6395 0.788513 29.5522 0.788513 30.6165C0.788513 32.2559 2.11883 33.5862 3.75819 33.5862H16.2406C17.8779 33.5862 19.2083 32.2559 19.2083 30.6165C19.2083 29.5522 18.6475 28.6395 17.9393 28.0459C16.8198 27.1106 14.8121 24.9862 14.0507 21.3063H15.115C15.6578 21.3063 16.1784 21.0907 16.5622 20.7069C16.946 20.3231 17.1616 19.8025 17.1616 19.2597C17.1616 18.7169 16.946 18.1963 16.5622 17.8125C16.1784 17.4287 15.6578 17.2131 15.115 17.2131H14.5747C15.3648 16.3296 15.8824 15.2364 16.0649 14.0653C16.2474 12.8941 16.0871 11.6952 15.6032 10.6132C15.1194 9.53126 14.3327 8.61245 13.3381 7.96772C12.3435 7.32299 11.1836 6.97991 9.99839 6.97988Z" fill="white"/>
</svg>
