<svg width="35" height="34" viewBox="0 0 35 34" fill="none" xmlns="http://www.w3.org/2000/svg">
<path d="M26.3949 1.63581C26.3953 1.38248 26.3205 1.13473 26.18 0.923953C26.0395 0.713177 25.8396 0.548872 25.6055 0.451868C25.3715 0.354864 25.114 0.329529 24.8655 0.379075C24.6171 0.428621 24.389 0.550817 24.2101 0.730171L19.0935 5.84677C18.9748 5.96578 18.8807 6.10702 18.8166 6.26241C18.7525 6.41781 18.7197 6.58431 18.72 6.7524V13.8977L16.8243 15.7909C16.445 15.6902 16.0478 15.678 15.6631 15.7551C15.2784 15.8322 14.9165 15.9966 14.6053 16.2356C14.2942 16.4746 14.042 16.7818 13.8683 17.1336C13.6946 17.4854 13.604 17.8724 13.6034 18.2647C13.6035 18.6288 13.6814 18.9887 13.8318 19.3202C13.9822 19.6518 14.2016 19.9475 14.4754 20.1875C14.7492 20.4274 15.0711 20.6062 15.4195 20.7118C15.7679 20.8175 16.1349 20.8475 16.4958 20.8C16.8568 20.7524 17.2034 20.6283 17.5126 20.4361C17.8218 20.2438 18.0864 19.9878 18.2887 19.6851C18.491 19.3824 18.6263 19.04 18.6857 18.6808C18.7451 18.3216 18.7271 17.9538 18.633 17.6021L20.5287 15.7064H27.674C27.8421 15.7067 28.0086 15.6739 28.164 15.6098C28.3194 15.5457 28.4606 15.4516 28.5797 15.3329L33.6962 10.2163C33.8756 10.0374 33.9978 9.80931 34.0473 9.56088C34.0969 9.31245 34.0716 9.0549 33.9746 8.82088C33.8775 8.58686 33.7132 8.38692 33.5025 8.2464C33.2917 8.10587 33.0439 8.0311 32.7906 8.03155H26.3949V1.63581ZM31.3682 16.1618C31.8084 19.3473 31.237 22.5907 29.7347 25.434C28.2324 28.2773 25.8751 30.5769 22.9955 32.0084C20.1158 33.4398 16.8594 33.9306 13.6857 33.4117C10.5121 32.8927 7.5816 31.3901 5.30791 29.116C3.03423 26.8418 1.5322 23.9111 1.01385 20.7373C0.495496 17.5636 0.987001 14.3072 2.41899 11.4279C3.85097 8.5485 6.1511 6.1916 8.9947 4.68986C11.8383 3.18812 15.0817 2.61738 18.2672 3.05822L17.2873 4.03805C16.9306 4.39435 16.6475 4.81747 16.4544 5.28321C16.2613 5.74896 16.1618 6.2482 16.1617 6.7524C13.8847 6.7524 11.659 7.42759 9.76576 8.69258C7.87256 9.95757 6.397 11.7556 5.52566 13.8592C4.65432 15.9628 4.42633 18.2775 4.87054 20.5107C5.31475 22.7439 6.41119 24.7952 8.02122 26.4052C9.63125 28.0152 11.6826 29.1117 13.9157 29.5559C16.1489 30.0001 18.4636 29.7721 20.5673 28.9008C22.6709 28.0294 24.4688 26.5538 25.7338 24.6607C26.9988 22.7675 27.674 20.5417 27.674 18.2647C28.6914 18.2638 29.6668 17.859 30.3858 17.1391L31.3682 16.1618ZM16.1617 9.3107C14.3907 9.3107 12.6596 9.83584 11.1871 10.8197C9.71459 11.8036 8.56693 13.202 7.88922 14.8382C7.21151 16.4743 7.03419 18.2747 7.37968 20.0116C7.72517 21.7485 8.57796 23.344 9.83021 24.5962C11.0825 25.8484 12.6779 26.7012 14.4148 27.0467C16.1517 27.3922 17.9521 27.2149 19.5882 26.5372C21.2244 25.8595 22.6228 24.7118 23.6067 23.2393C24.5906 21.7669 25.1157 20.0357 25.1157 18.2647H21.5878L21.268 18.5845C21.2065 19.5674 20.8627 20.5116 20.2779 21.3038C19.693 22.0961 18.8919 22.7027 17.9708 23.051C17.0497 23.3992 16.0477 23.4742 15.085 23.2671C14.1222 23.0599 13.2398 22.5793 12.5434 21.883C11.8471 21.1866 11.3665 20.3042 11.1594 19.3415C10.9522 18.3788 11.0272 17.3767 11.3754 16.4556C11.7237 15.5345 12.3303 14.7334 13.1226 14.1485C13.9149 13.5637 14.8591 13.2199 15.8419 13.1584L16.1617 12.8386V9.3107Z" fill="white"/>
</svg>
