<svg width="75" height="55" viewBox="0 0 75 55" fill="none" xmlns="http://www.w3.org/2000/svg">
<path fill-rule="evenodd" clip-rule="evenodd" d="M68.576 45.051C67.8907 45.051 67.3346 44.4948 67.3346 43.8094V4.07899C67.3346 3.39612 66.7784 2.83741 66.0931 2.83741H8.98654C8.30127 2.83741 7.7451 3.39612 7.7451 4.07899V43.8094C7.7451 44.4948 7.18894 45.051 6.50366 45.051C5.81838 45.051 5.26221 44.4948 5.26221 43.8094V4.07899C5.26221 2.02542 6.9332 0.354258 8.98655 0.354258H66.0931C68.1465 0.354258 69.8175 2.02542 69.8175 4.07899V43.8094C69.8175 44.4948 69.2613 45.051 68.576 45.051H68.576Z" fill="#EC6C1F"/>
<path fill-rule="evenodd" clip-rule="evenodd" d="M68.5792 54.9803H6.5004C3.07613 54.9803 0.292511 52.1967 0.292511 48.7724C0.292511 48.087 0.848734 47.5308 1.53408 47.5308H28.8488C29.5341 47.5308 30.0903 48.0871 30.0903 48.7724C30.0903 49.4577 29.5341 50.014 28.8488 50.014H2.98921C3.50073 51.4592 4.88137 52.4971 6.50039 52.4971H68.5792C70.1982 52.4971 71.5789 51.4592 72.0904 50.014H46.2308C45.5455 50.014 44.9893 49.4577 44.9893 48.7724C44.9893 48.087 45.5455 47.5308 46.2308 47.5308H73.5455C74.2309 47.5308 74.7871 48.0871 74.7871 48.7724C74.7871 52.1967 72.0035 54.9803 68.5792 54.9803Z" fill="#EC6C1F"/>
<g clip-path="url(#clip0_5_21)">
<path d="M41.6831 14.0843L39.5074 16.3104L44.398 21.3051L46.5738 19.083C47.4292 18.2093 47.4292 16.7971 46.5738 15.9234L44.7769 14.0843C43.9214 13.2107 42.5386 13.2107 41.6831 14.0843ZM38.5425 17.1282L38.1831 17.2399L32.5542 18.9633C31.7769 19.2027 31.1597 19.8091 30.9019 20.599L27.441 31.1389C27.2925 31.5896 27.4019 32.0923 27.7261 32.4314L33.7261 26.3077C33.6089 26.0564 33.5425 25.7772 33.5425 25.4819C33.5425 24.4248 34.3824 23.567 35.4175 23.567C36.4527 23.567 37.2925 24.4248 37.2925 25.4819C37.2925 26.5391 36.4527 27.3968 35.4175 27.3968C35.1285 27.3968 34.855 27.329 34.6089 27.2093L28.6089 33.337C28.9449 33.6681 29.4331 33.7838 29.8745 33.6282L40.1988 30.0936C40.9683 29.8303 41.566 29.2 41.8003 28.4061L43.4878 22.6575L43.5933 22.2904L38.5425 17.1282Z" fill="white"/>
</g>
<defs>
<clipPath id="clip0_5_21">
<rect width="20" height="20.4255" fill="white" transform="translate(27.2925 13.3542)"/>
</clipPath>
</defs>
</svg>
