<svg width="37" height="37" viewBox="0 0 37 37" fill="none" xmlns="http://www.w3.org/2000/svg">
<path d="M35.3214 13.1997L13.045 35.4745C12.8075 35.7121 12.5254 35.9006 12.215 36.0292C11.9046 36.1578 11.5718 36.224 11.2358 36.224C10.8998 36.224 10.5671 36.1578 10.2567 36.0292C9.94625 35.9006 9.6642 35.7121 9.42663 35.4745L1.00183 27.0513C0.764212 26.8137 0.575717 26.5316 0.447114 26.2212C0.318511 25.9108 0.252319 25.5781 0.252319 25.2421C0.252319 24.9061 0.318511 24.5733 0.447114 24.2629C0.575717 23.9525 0.764212 23.6704 1.00183 23.4329L5.66593 18.7688C5.72533 18.7093 5.79587 18.6621 5.87351 18.6299C5.95115 18.5978 6.03438 18.5812 6.11843 18.5812C6.20248 18.5812 6.28571 18.5978 6.36335 18.6299C6.44099 18.6621 6.51153 18.7093 6.57093 18.7688L12.14 24.3379C12.2644 24.4621 12.413 24.5595 12.5767 24.6237C12.7403 24.688 12.9155 24.7178 13.0912 24.7114C13.2669 24.7049 13.4394 24.6623 13.5979 24.5862C13.7564 24.5101 13.8975 24.4022 14.0124 24.2691C14.2224 24.0157 14.3292 23.6924 14.3115 23.3637C14.2937 23.035 14.1526 22.7252 13.9164 22.4959L8.37932 16.9588C8.25972 16.8389 8.19254 16.6764 8.19254 16.5071C8.19254 16.3377 8.25972 16.1753 8.37932 16.0554L10.7777 13.657C10.8371 13.5975 10.9077 13.5503 10.9853 13.5181C11.063 13.486 11.1462 13.4694 11.2302 13.4694C11.3143 13.4694 11.3975 13.486 11.4751 13.5181C11.5528 13.5503 11.6233 13.5975 11.6827 13.657L17.2518 19.2261C17.3762 19.3503 17.5248 19.4477 17.6885 19.5119C17.8521 19.5762 18.0273 19.606 18.203 19.5996C18.3787 19.5931 18.5512 19.5505 18.7097 19.4744C18.8682 19.3983 19.0093 19.2904 19.1242 19.1573C19.3342 18.9039 19.441 18.5806 19.4233 18.2519C19.4055 17.9232 19.2644 17.6134 19.0282 17.3841L13.4975 11.8422C13.3779 11.7223 13.3107 11.5598 13.3107 11.3905C13.3107 11.2211 13.3779 11.0587 13.4975 10.9388L15.8959 8.54037C16.0158 8.42076 16.1783 8.35359 16.3476 8.35359C16.517 8.35359 16.6794 8.42076 16.7993 8.54037L22.3684 14.1095C22.4928 14.234 22.6415 14.3315 22.8054 14.396C22.9692 14.4604 23.1445 14.4903 23.3204 14.4838C23.4963 14.4774 23.669 14.4347 23.8276 14.3585C23.9862 14.2822 24.1274 14.174 24.2424 14.0407C24.4522 13.7871 24.5588 13.4637 24.5407 13.135C24.5226 12.8063 24.3813 12.4965 24.1448 12.2675L18.6141 6.72558C18.4945 6.60568 18.4273 6.44324 18.4273 6.27388C18.4273 6.10452 18.4945 5.94208 18.6141 5.82218L23.2782 1.15808C23.5158 0.920462 23.7978 0.731967 24.1083 0.603364C24.4187 0.474761 24.7514 0.408569 25.0874 0.408569C25.4234 0.408569 25.7561 0.474761 26.0666 0.603364C26.377 0.731967 26.659 0.920462 26.8966 1.15808L35.3214 9.58128C35.559 9.81885 35.7475 10.1009 35.8761 10.4113C36.0047 10.7217 36.0709 11.0545 36.0709 11.3905C36.0709 11.7265 36.0047 12.0592 35.8761 12.3696C35.7475 12.6801 35.559 12.9621 35.3214 13.1997Z" fill="white"/>
</svg>
