<svg width="67" height="67" viewBox="0 0 67 67" fill="none" xmlns="http://www.w3.org/2000/svg">
<g clip-path="url(#clip0_5_79)">
<path d="M66.9578 11.7374V51.5268L66.8845 51.9241L66.7745 52.3029L66.6278 52.6696L66.4384 53.0118L66.2184 53.3296L65.9617 53.6168L65.6745 53.8735L65.3628 54.0935L64.9473 54.3135L64.5011 54.4724L64.0367 54.5702L63.5417 54.6007H45.4528L45.3917 54.6252L45.3673 54.6863V58.8479L45.3917 58.9091L45.4528 58.9335H48.2945L48.6306 58.9579L48.9545 59.0129L49.2784 59.1046L49.5839 59.2268L49.8711 59.3857L50.1339 59.5691L50.3784 59.7829L50.5923 60.0213L50.8489 60.4063L51.0445 60.8341L51.1667 61.2863L51.2217 61.7691L51.2339 63.4802L51.2156 63.8407L51.1545 64.1402L51.0384 64.3846L50.8856 64.5557L50.7634 64.6352L50.6167 64.6963L50.2745 64.7391H23.795L23.5384 64.7268L23.3184 64.678L23.1289 64.5985L22.9761 64.4824L22.8539 64.3174L22.7684 64.1157L22.7195 63.8713V63.5841C22.7134 63.5841 22.7073 62.1052 22.7073 62.1052L22.7439 61.4391L22.7928 61.1702L22.86 60.9441L23.0495 60.5163L23.2878 60.1374L23.5628 59.8074L23.8806 59.5263L24.2961 59.2696L24.7545 59.0863L25.2556 58.9763L25.7934 58.9396H28.5006L28.5556 58.9152L28.58 58.8602V54.6557L28.5678 54.6252L28.5373 54.6129H11.4934C11.4934 54.6191 10.7234 54.6129 10.7234 54.6129L10.0939 54.5763L9.59892 54.5152L9.25059 54.4296L8.79836 54.2279L8.37059 53.9529L7.97947 53.6107L7.63725 53.2135L7.36836 52.7979L7.1667 52.3457L7.04447 51.8813L7.0017 51.4291V39.9707L6.96503 39.9341H6.70836H6.19503L5.84059 39.8913L5.56559 39.7996L5.36392 39.6529L5.26003 39.5124L5.18058 39.3291L5.13781 39.1213L5.12559 38.8707V33.2852L5.11336 33.2485L5.0767 33.2302L4.61225 33.1996L4.16614 33.1263L3.72614 33.0163L3.30447 32.8696L2.90725 32.6863L2.53447 32.4663L2.18614 32.2096L1.86225 31.9224L1.59947 31.6413L1.36114 31.3357L1.14725 31.0057L0.963918 30.6513L0.81114 30.2846L0.688918 29.8935L0.597252 29.5024L0.530029 29.0807V28.4024L0.59114 27.9929L0.676696 27.6018L0.798918 27.2168L0.945585 26.8502L1.12281 26.5018L1.33058 26.1718L1.56281 25.8663L1.81947 25.5852L2.17392 25.2674L2.55892 24.9863L2.97447 24.7479L3.42058 24.5524L3.89114 24.4057L4.38003 24.3018L4.88114 24.2468H5.39447L6.94059 24.2346H6.95892L6.99559 24.2041L7.00781 24.1613V12.2507L7.04447 11.7068L7.09336 11.5113L7.16059 11.3646L7.28281 11.2118L7.42947 11.0957L7.6617 10.9979L7.9367 10.9674H39.5006L39.5373 10.9552L39.5556 10.9185L39.6106 10.3441L39.69 9.78794L39.7939 9.24405L39.9223 8.71239L40.0811 8.19294L40.2645 7.69183L40.4723 7.19683L40.7045 6.72016L41.1873 5.90127L41.7556 5.12516L42.4461 4.34905L42.825 3.9885L43.2161 3.64627L43.6195 3.3285L44.035 3.03516L44.475 2.76016L44.9211 2.50961L45.5017 2.2285L46.0945 1.98405L46.7117 1.77627L47.3411 1.61127L47.9828 1.48905L48.6245 1.4035L49.2723 1.36072H49.92L50.5678 1.4035L51.2095 1.48905L51.845 1.61127L52.4745 1.77627L53.0917 1.98405L53.6906 2.2285L54.2711 2.50961L54.8334 2.82738L55.2917 3.12683L55.7378 3.45072L56.1534 3.79905L56.5567 4.17183L56.9417 4.56294L57.3084 4.98461L57.6506 5.42461L57.9745 5.88294L58.3961 6.58572L58.7567 7.31294L59.0867 8.15627L59.3373 9.03016L59.5084 9.94072L59.6061 10.8818L59.6306 10.9307L59.6795 10.9491H65.9373L66.1389 10.9613L66.3223 10.9979L66.4873 11.0652L66.6278 11.1568L66.7378 11.2607L66.8356 11.3891L66.97 11.7068M57.785 11.4013L57.7484 10.5946L57.6261 9.80016L57.4306 9.01794L57.1617 8.26016L56.8134 7.53294L56.3978 6.84238L55.9211 6.19461L55.3834 5.59572L54.7845 5.05794L54.1367 4.58127L53.4461 4.16572L52.7189 3.81738L51.9611 3.5485L51.1789 3.35294L50.3845 3.23072L49.5778 3.19405L48.7711 3.23072L47.9767 3.35294L47.1945 3.5485L46.4367 3.81738L45.7095 4.16572L45.0189 4.58127L44.3711 5.05794L43.7723 5.59572L43.2345 6.19461L42.7578 6.84238L42.3423 7.53294L41.9939 8.26016L41.725 9.01794L41.5295 9.80016L41.4073 10.5946L41.3706 11.4013L41.4073 12.2079L41.5295 13.0024L41.725 13.7846L41.9939 14.5424L42.3423 15.2696L42.7578 15.9602L43.2345 16.6079L43.7723 17.2068L44.3711 17.7507L45.0189 18.2274L45.7095 18.6429L46.4367 18.9852L47.1945 19.2541L47.9767 19.4496L48.7711 19.5718L49.5778 19.6085L50.3845 19.5718L51.1789 19.4496L51.9611 19.2541L52.7189 18.9852L53.4461 18.6429L54.1367 18.2274L54.7845 17.7507L55.3834 17.2068L55.9211 16.6079L56.3978 15.9602L56.8134 15.2696L57.1617 14.5424L57.4306 13.7846L57.6261 13.0024L57.7484 12.2079L57.785 11.4013ZM10.705 33.7557V38.4307C10.7111 38.4307 10.6806 39.1091 10.6806 39.1091L10.6439 39.3291L10.5889 39.4757L10.4361 39.6713L10.2345 39.8118L9.9717 39.8974L9.64781 39.9402H9.2017L8.90836 39.9341L8.85336 39.9585L8.82892 40.0135V44.5907L8.85336 44.6457L8.90836 44.6702H65.1L65.1367 44.6579L65.1489 44.6274V12.8618L65.1306 12.8191L65.0878 12.8007H59.6L59.545 12.8191L59.5145 12.8741L59.3189 13.8274L59.0439 14.7379L58.6956 15.6057L58.2678 16.4246L57.7423 17.2313L57.1311 17.9952L56.6728 18.4841L56.1961 18.9363L55.695 19.3579L55.1756 19.7368L54.6256 20.0852L54.0634 20.3907L53.4828 20.6596L52.89 20.8918L52.1261 21.1241L51.3561 21.2891L50.5678 21.3929L49.7734 21.4357L48.9728 21.4113L48.1784 21.3257L47.3961 21.1729L46.6261 20.9652L45.8745 20.6963L45.1411 20.3663L44.4384 19.9813L43.7661 19.5413L43.1367 19.0524L42.5439 18.5146L42 17.9341L41.4989 17.3046L41.1628 16.8096L40.8511 16.2902L40.5761 15.7585L40.3317 15.2024L40.1178 14.6402L39.9345 14.0535L39.7878 13.4607L39.6717 12.8496L39.6289 12.8129H8.87781L8.84114 12.8252L8.82892 12.8618V24.1857L8.84725 24.2346L8.89614 24.2529H9.44003C9.44003 24.2591 9.67836 24.2407 9.67836 24.2407L17.4395 20.7879L17.4761 20.7574L17.4884 20.7085V19.7857L17.5067 19.364L17.58 18.9729L17.7084 18.6002L17.8917 18.2641L18.2034 17.8729L18.3928 17.6957L18.6006 17.5429L19.0589 17.2985L19.5539 17.1457L20.0734 17.0907L20.5928 17.1335L20.8434 17.1946L21.0878 17.2802L21.5339 17.5124L21.8273 17.7385L22.0961 18.0196L22.3161 18.3374L22.5056 18.7041L22.5911 18.9913L22.6523 19.3763L22.6889 19.8529V20.4335C22.695 20.4335 22.6889 24.8702 22.6889 24.8702L22.7073 24.9191L22.75 24.9496L23.2634 25.1329L23.7339 25.3713L24.1739 25.6646L24.565 26.0007L24.9073 26.3796L25.1945 26.7952L25.4206 27.2474L25.5856 27.7241L25.6895 28.2618L25.7139 28.8179L25.6589 29.3741L25.5245 29.9424L25.3717 30.3396L25.17 30.7246L24.9256 31.0852L24.6506 31.4213L24.3389 31.7207L24.0028 31.9835L23.6545 32.1913L23.2939 32.3502L22.7439 32.5518L22.695 32.5885L22.6767 32.6435V36.9702V37.5446L22.6523 38.0335L22.5911 38.4307L22.4995 38.7363L22.3284 39.0968L22.1206 39.4146L21.8639 39.6957L21.5828 39.9279L21.1856 40.1602L20.7639 40.3129L20.3117 40.3924H19.8534L19.4011 40.3129L18.9673 40.1602L18.5761 39.9341L18.2278 39.6407L17.9956 39.3657L17.8 39.0541L17.6473 38.7179L17.5373 38.3452L17.4823 37.8929V37.2146V36.7807L17.4639 36.7196L17.415 36.6829L10.76 33.7252H10.7234L10.705 33.7496M20.8617 19.6513L20.8495 19.4985L20.8067 19.3518L20.7334 19.2174L20.6356 19.1013L20.5195 19.0035L20.385 18.9302L20.2384 18.8874L20.0856 18.8752H20.0734L19.9206 18.8874L19.7739 18.9302L19.6395 19.0035L19.5234 19.1013L19.4256 19.2174L19.3523 19.3518L19.3095 19.4985L19.2973 19.6513V37.8074L19.3095 37.9602L19.3523 38.1068L19.4256 38.2413L19.5234 38.3574L19.6395 38.4552L19.7739 38.5285L19.9206 38.5713L20.0734 38.5835H20.0856L20.2384 38.5713L20.385 38.5285L20.5195 38.4552L20.6356 38.3574L20.7334 38.2413L20.8067 38.1068L20.8495 37.9602L20.8617 37.8074V19.6513ZM10.7356 25.7441L10.7111 25.7868V31.6902L10.7356 31.7329L17.4211 34.7091H17.4578L17.4823 34.6785V34.6663V22.8168V22.7985L17.4211 22.7802L10.7356 25.7502M8.89003 31.3357V26.1352L8.8717 26.0924L8.82892 26.0741H5.05225L4.5267 26.1229L4.01947 26.2757L3.55503 26.5202L3.14559 26.8502L2.80947 27.2535L2.55892 27.7118L2.47336 27.9563L2.40614 28.2068L2.36947 28.4635L2.35725 28.7263V28.7385L2.36947 29.0013L2.40614 29.2579L2.47336 29.5085L2.55892 29.7529L2.80947 30.2113L3.14559 30.6146L3.55503 30.9446L4.01947 31.1891L4.5267 31.3418L5.05225 31.3907H8.84114L8.87781 31.3663L8.89003 31.3235M22.6767 28.7324V30.5841C22.6828 30.5841 22.7195 30.6085 22.7195 30.6085L23.08 30.3702L23.3856 30.0768L23.6239 29.7346L23.7889 29.3496L23.8561 29.0502L23.8806 28.7324L23.8561 28.4207L23.7889 28.1213L23.6239 27.7363L23.3856 27.3941L23.08 27.1007L22.7195 26.8624H22.7134L22.6767 26.8868V28.7385M8.89003 33.2791L8.8717 33.2363L8.82892 33.2179H7.0017L6.95892 33.2363L6.94059 33.2791V38.0457L6.95892 38.0885L7.0017 38.1068H8.82892L8.8717 38.0885L8.89003 38.0457V33.2791ZM36.9828 52.7918H63.1261L63.7923 52.7613L64.0123 52.7307L64.1589 52.6879L64.4156 52.5474L64.6417 52.3702L64.8067 52.1991L64.9534 52.0035L65.0389 51.7896L65.1 51.4657L65.1367 51.0257L65.1489 50.4757V46.5341C65.1428 46.5341 65.1 46.4913 65.1 46.4913H36.9828H8.86559L8.82281 46.5341V50.4757C8.8167 50.4757 8.82281 51.0257 8.82281 51.0257L8.85947 51.4657L8.92059 51.7896L9.00614 52.0035L9.15281 52.1991L9.31781 52.3702L9.54392 52.5474L9.80058 52.6879L9.94725 52.7307L10.1673 52.7613L10.8334 52.7857H36.9767M43.5645 54.6557L43.5523 54.6191L43.5156 54.6068H30.45L30.4134 54.6191L30.4011 54.6557V58.8846L30.4134 58.9213L30.45 58.9335H43.5156L43.5523 58.9213L43.5645 58.8846V54.6557ZM24.6323 62.9241H49.3517L49.4189 62.8874L49.4434 62.8141V61.9524L49.4189 61.7202L49.3456 61.4941L49.2295 61.2863L49.0767 61.1029L48.8873 60.9502L48.6734 60.8402L48.4411 60.7729L48.2028 60.7485H25.7506L25.5123 60.7729L25.28 60.8402L25.0661 60.9502L24.8767 61.1029L24.7239 61.2863L24.6078 61.4941L24.5406 61.7202L24.5161 61.9524V62.8141L24.5406 62.8813L24.6017 62.9179H24.62L24.6323 62.9241Z" fill="#EC6C1F"/>
<path d="M50.4884 8.05859V10.5703L50.525 10.6253L50.8734 10.7658L51.1911 10.9308L51.4906 11.1264L51.7595 11.3464L52.01 11.5969L52.2239 11.8658L52.4134 12.1653L52.5661 12.4769L52.67 12.758L52.7495 13.0453L52.7984 13.3386L52.8228 13.6319V13.9253L52.7922 14.2186L52.7372 14.5119L52.6517 14.7991L52.5356 15.0925L52.3889 15.3736L52.2178 15.6364L52.0222 15.8808L51.7961 16.113L51.5456 16.3269L51.2767 16.5164L50.9833 16.6875L50.7206 16.7914L50.5372 16.8586L50.4945 16.8953L50.4761 16.9503V17.2253V17.708L50.4089 18.0014L50.2439 18.258L50.0056 18.4536L49.7245 18.5575H49.4311C49.4311 18.5636 49.1622 18.4841 49.1622 18.4841L48.9178 18.3069L48.8017 18.1664L48.7284 18.0136L48.6795 17.8241L48.655 17.323V16.9503C48.6489 16.9503 48.6306 16.8953 48.6306 16.8953L48.5878 16.8647L48.0989 16.6447L47.665 16.3819L47.2922 16.0764L46.9745 15.7219L46.7422 15.3675L46.5589 14.9825L46.4245 14.5608L46.3328 14.1025L46.3145 13.803L46.3511 13.528L46.4367 13.2958L46.5833 13.1003L46.7545 12.9719L46.9745 12.8803L47.1578 12.8436H47.335L47.5306 12.8986L47.72 12.9964L47.8422 13.088L47.9339 13.1919L48.0134 13.3264L48.0684 13.473L48.1356 13.8825L48.2089 14.2186L48.3617 14.5364L48.6 14.8236H48.6122C48.6122 14.8297 48.6428 14.8236 48.6428 14.8236L48.655 14.793V12.263L48.6367 12.208L48.5878 12.1714L48.0011 11.9025L47.5061 11.5847L47.1089 11.2119L46.9439 11.0041L46.8034 10.7841L46.6261 10.4358L46.4917 10.0814L46.3878 9.7147L46.3267 9.34803L46.3083 8.98137L46.3328 8.62081L46.3939 8.27248L46.4978 7.93637L46.6384 7.61248L46.8156 7.30081L47.0295 7.00748L47.28 6.73859L47.5611 6.50025L47.8789 6.28637L48.215 6.10303L48.5756 5.95025L48.6245 5.91359L48.6489 5.85859V5.49803V5.11303L48.6978 4.86248L48.8322 4.5997L49.0156 4.41025L49.1439 4.33081L49.2906 4.27581L49.6389 4.23303L49.7734 4.25137L50.0606 4.37359L50.2684 4.55692L50.3661 4.72192L50.4333 4.93581L50.4639 5.18637V5.54081L50.47 5.85248L50.4884 5.91359L50.5372 5.95025L50.9222 6.11525L51.2889 6.31692L51.625 6.55525L51.9306 6.83025L52.1934 7.13581L52.4134 7.47192L52.5845 7.82025L52.7128 8.19303L52.7922 8.60859L52.8106 9.04248L52.7922 9.21359L52.7495 9.37248L52.6822 9.51914L52.5906 9.64748L52.4745 9.75748L52.3461 9.84303L52.2056 9.90414L52.0528 9.94081L51.9 9.95303L51.7472 9.94081L51.5945 9.89803L51.4478 9.83081L51.2645 9.69025L51.1178 9.4947L51.0322 9.23803L50.9711 8.82248V8.75525H50.965L50.9161 8.56581L50.8367 8.37637L50.7206 8.19303L50.5678 8.01581L50.5189 7.99748L50.4761 8.03414V8.05859M48.1417 9.0547L48.1784 9.37248L48.2395 9.56803L48.3311 9.75748L48.4534 9.94081L48.6061 10.118H48.6306C48.6306 10.1241 48.655 10.1119 48.655 10.1119V10.0997L48.6672 9.04248L48.655 7.98526V7.97303L48.6306 7.9547H48.6C48.6 7.96081 48.4472 8.14414 48.4472 8.14414L48.325 8.32748L48.2333 8.51692L48.1722 8.71859L48.1356 9.03637M51.02 13.7541L50.9833 13.4364L50.9222 13.2408L50.8306 13.0514L50.7083 12.868L50.5556 12.6908H50.5311C50.5311 12.6847 50.5067 12.6969 50.5067 12.6969V12.7091L50.4945 13.7541L50.5067 14.7991V14.8114L50.5311 14.8297H50.5556C50.5556 14.8236 50.7083 14.6464 50.7083 14.6464L50.8306 14.463L50.9222 14.2736L50.9833 14.078L51.02 13.7603V13.7541Z" fill="white"/>
<path d="M27.6389 25.7809L27.5044 25.8909L27.3578 25.9704L27.1928 26.0193L27.0217 26.0376L26.8505 26.0193L26.6855 25.9704L26.5328 25.8909L26.3983 25.7809L26.3555 25.7443L26.2517 25.6098L26.1661 25.4571L26.1172 25.2921L26.0989 25.1209L26.1172 24.9498L26.1661 24.7848L26.2517 24.6321L26.3555 24.4976L28.2072 22.6521L28.3417 22.5421L28.4944 22.4565L28.6594 22.4076L28.8305 22.3954L29.0017 22.4076L29.1667 22.4565L29.3194 22.5421L29.4478 22.6521L29.4905 22.6887L29.6005 22.8232L29.68 22.9759L29.7289 23.1409L29.7472 23.3121L29.7289 23.4832L29.68 23.6482L29.6005 23.8009L29.4905 23.9293L27.6389 25.7809Z" fill="#EC6C1F"/>
<path d="M37.8016 36.9459V29.0443L37.8261 28.6043L37.8872 28.1704L37.9911 27.7426L38.1377 27.327L38.3272 26.9298L38.5533 26.5509L38.8161 26.1965L39.1094 25.8726L39.4333 25.5793L39.7877 25.3165L40.1666 25.0904L40.5639 24.9009L40.9794 24.7543L41.4072 24.6504L41.8411 24.5893L42.2811 24.5648H57.2961L57.7177 24.5832L58.1394 24.6443L58.555 24.742L58.9583 24.8826L59.5572 25.1759L60.1072 25.5548L60.5961 26.007L61.0116 26.5265L61.3416 27.107L61.5861 27.7243L61.7327 28.372L61.7816 29.0382V36.9398L61.7572 37.3798L61.6961 37.8137L61.5922 38.2415L61.4455 38.657L61.2561 39.0543L61.03 39.4332L60.7672 39.7876L60.4739 40.1115L60.15 40.4048L59.7955 40.6676L59.4166 40.8937L59.0194 41.0832L58.6039 41.2298L58.1761 41.3337L57.7422 41.3948L57.3022 41.4193H42.2872L41.8472 41.3948L41.4133 41.3337L40.9855 41.2298L40.57 41.0832L40.1727 40.8937L39.7939 40.6676L39.4394 40.4048L39.1155 40.1115L38.8222 39.7876L38.5594 39.4332L38.3333 39.0543L38.1439 38.657L37.9972 38.2415L37.8933 37.8137L37.8322 37.3798L37.8077 36.9398M59.9422 29.032L59.8933 28.5187L59.7405 28.0237L59.4961 27.5654L59.1661 27.1682L58.7689 26.8382L58.3105 26.5937L57.8155 26.4409L57.3022 26.392H42.2627L41.7494 26.4409L41.2544 26.5937L40.7961 26.8382L40.3989 27.1682L40.0689 27.5654L39.8244 28.0237L39.6716 28.5187L39.6227 29.032V36.952L39.6716 37.4654L39.8244 37.9604L40.0689 38.4187L40.3989 38.8159L40.7961 39.1459L41.2544 39.3904L41.7494 39.5432L42.2627 39.592H57.3022L57.8155 39.5432L58.3105 39.3904L58.7689 39.1459L59.1661 38.8159L59.4961 38.4187L59.7405 37.9604L59.8933 37.4654L59.9422 36.952V29.032Z" fill="white"/>
<path d="M33.6889 28.7507L33.6706 28.9218L33.6217 29.0868L33.5361 29.2396L33.4261 29.374L33.2978 29.484L33.145 29.5634L32.98 29.6184L32.8089 29.6368L27.5533 29.6429L27.3822 29.6246L27.2172 29.5757L27.0645 29.4962L26.93 29.3862L26.82 29.2518L26.7406 29.099L26.6917 28.934L26.6733 28.7629V28.714L26.6917 28.5429L26.7406 28.3779L26.82 28.2251L26.93 28.0907L27.0645 27.9807L27.2172 27.9012L27.3822 27.8462L27.5533 27.834L32.8028 27.8218L32.9739 27.8401L33.1389 27.889L33.2917 27.9684L33.4261 28.0784L33.5361 28.2129L33.6156 28.3657L33.6706 28.5307L33.6828 28.7018L33.6889 28.7507Z" fill="#EC6C1F"/>
<path d="M54.5401 33.7865L47.7384 37.716L47.5184 37.8077L47.2801 37.8382L47.0417 37.8077L46.8217 37.716L46.6323 37.5693L46.4856 37.3799L46.394 37.1599L46.3634 36.9215V29.0627L46.3878 28.8549L46.4612 28.6593L46.5712 28.4821L46.7178 28.3354L46.9501 28.2071L47.2128 28.1521L47.4817 28.1765L47.7323 28.2743L54.534 32.2038L54.6867 32.3138L54.8151 32.4543L54.9128 32.6193L54.974 32.8027L54.9862 33.0899L54.9128 33.3649L54.7601 33.6032L54.5401 33.7804M48.2517 30.6699H48.2395H48.2028L48.1845 30.7065V35.296L48.2151 35.3265H48.2517L52.2117 33.0349L52.224 33.0227V32.986C52.2301 32.986 52.2117 32.9554 52.2117 32.9554L48.2517 30.6638V30.6699Z" fill="white"/>
<path d="M29.4539 35.1309L29.3194 35.2409L29.1667 35.3204L29.0017 35.3692L28.8305 35.3876L28.6594 35.3692L28.4944 35.3204L28.3417 35.2409L28.2072 35.1309L26.3555 33.2854L26.2517 33.1509L26.1661 33.0042L26.1172 32.8392L26.0989 32.6681L26.1172 32.497L26.1661 32.332L26.2455 32.1792L26.3555 32.0448L26.3983 32.002L26.5267 31.892L26.6794 31.8126L26.8444 31.7637L27.0155 31.7454L27.1867 31.7637L27.3517 31.8126L27.5044 31.892L27.6389 32.002L29.4905 33.8476L29.6005 33.9759L29.68 34.1287L29.7289 34.2937L29.7472 34.4648L29.7289 34.6359L29.68 34.8009L29.6005 34.9537L29.4905 35.0881L29.4539 35.1309Z" fill="#EC6C1F"/>
<path d="M33.4689 49.6509L33.4506 49.8281L33.4017 49.9931L33.3161 50.1459L33.2061 50.2865L33.0717 50.3965L32.9128 50.482L32.7478 50.5309L32.5706 50.5492H12.9295L12.7522 50.5309L12.5872 50.482L12.4284 50.3965L12.2939 50.2865L12.1839 50.1459L12.0984 49.9931L12.0495 49.8281L12.0311 49.6509V49.6326L12.0495 49.4554L12.0984 49.2904L12.1839 49.1315L12.2939 48.997L12.4284 48.887L12.5872 48.8015L12.7522 48.7526L12.9295 48.7343H32.5706L32.7478 48.7526L32.9128 48.8015L33.0717 48.887L33.2061 48.997L33.3161 49.1315L33.4017 49.2904L33.4506 49.4554L33.4689 49.6326V49.6509Z" fill="white"/>
<path d="M39.635 49.6815L39.6167 49.8465L39.5678 50.0115L39.4944 50.1581L39.3844 50.2865L39.2561 50.3904L39.1094 50.4698L38.9505 50.5187L38.7794 50.537L37.1661 50.5431L37.0011 50.5248L36.8422 50.4759L36.6955 50.3965L36.5672 50.2926L36.4572 50.1643L36.3778 50.0176L36.3289 49.8526L36.3105 49.6876V49.5959L36.3289 49.4309L36.3778 49.2659L36.4572 49.1193L36.5611 48.9909L36.6894 48.887L36.8361 48.8076L37.0011 48.7587L37.1661 48.7404L38.7794 48.7343L38.9444 48.7526L39.1033 48.8015L39.2561 48.8809L39.3844 48.9848L39.4883 49.1131L39.5678 49.2598L39.6167 49.4248L39.635 49.5898V49.6815Z" fill="white"/>
</g>
<defs>
<clipPath id="clip0_5_79">
<rect width="66.4278" height="66" fill="white" transform="translate(0.530029 0.0653076)"/>
</clipPath>
</defs>
</svg>
