<svg width="140" height="40" viewBox="0 0 140 40" fill="none" xmlns="http://www.w3.org/2000/svg">
<path d="M32.7318 21.8199V8.22993C32.7318 6.33989 31.8817 5.39439 30.1825 5.39439H22.9944V21.8199H18.1562V5.39535H8.41789V21.8209H3.57973V0.956944H31.1909C33.3682 0.956944 34.9758 1.51699 36.0138 2.63613C37.0509 3.75623 37.57 5.45545 37.57 7.73667V21.8199H32.7318Z" fill="white"/>
<path d="M40.7432 21.8199V0.956944H45.5814V21.8199H40.7432Z" fill="white"/>
<path d="M70.7893 21.8199V8.22993C70.7893 6.33989 69.9363 5.39439 68.2314 5.39439H53.6549V21.8199H48.8167V0.956944H69.2484C71.4256 0.956944 73.0333 1.51699 74.0713 2.63613C75.1084 3.75623 75.6274 5.45545 75.6274 7.73667V21.8199H70.7893Z" fill="white"/>
<path d="M78.8017 21.8199V0.956944H99.2019C101.544 0.956944 103.29 1.60381 104.441 2.89851C105.591 4.1932 106.167 5.99069 106.167 8.29099V14.608C106.167 16.8272 105.586 18.5837 104.426 19.8774C103.264 21.1721 101.523 21.819 99.2019 21.819H78.8017V21.8199ZM101.329 9.28801C101.329 8.13452 101.113 7.19761 100.682 6.47632C100.25 5.75503 99.4385 5.39439 98.2469 5.39439H83.6398V17.3825H97.5075C98.8021 17.3825 99.7619 17.1354 100.389 16.6411C101.016 16.1469 101.329 15.3436 101.329 14.2311V9.28801Z" fill="white"/>
<path d="M109.063 21.8199V17.7832H128.909C129.546 17.7832 130.004 17.6238 130.28 17.3052C130.558 16.9865 130.696 16.519 130.696 15.9027V14.9162C130.696 14.3408 130.563 13.8886 130.297 13.5604C130.029 13.2322 129.579 13.0671 128.944 13.0671H113.933C112.155 13.0671 110.898 12.6569 110.164 11.8345C109.431 11.013 109.063 9.84233 109.063 8.32152V5.67108C109.063 4.15122 109.43 2.98533 110.164 2.1734C110.898 1.36243 112.155 0.95599 113.933 0.95599H135.042V4.99272H115.689C115.032 4.99272 114.569 5.14633 114.303 5.4545C114.036 5.76267 113.902 6.2149 113.902 6.81025V7.64222C113.902 8.23852 114.035 8.69552 114.302 9.01323C114.569 9.3319 115.03 9.49123 115.687 9.49123H130.667C132.454 9.49123 133.712 9.90244 134.442 10.7239C135.171 11.5463 135.536 12.717 135.536 14.2368V17.1029C135.536 18.6237 135.171 19.7896 134.442 20.6006C133.712 21.4125 132.455 21.818 130.667 21.818H109.064L109.063 21.8199Z" fill="white"/>
<path d="M85.1234 38.9152C83.6942 38.9152 82.639 38.5517 81.9587 37.8237C81.2775 37.0958 80.9379 35.9766 80.9379 34.4673V25.226H84.1131V34.16C84.1131 35.3889 84.6722 36.0033 85.7913 36.0033H96.0229V38.9152H85.1234Z" fill="white"/>
<path d="M100.737 39.0421C99.5664 39.0421 98.7392 38.775 98.2564 38.2407C97.7736 37.7064 97.5313 36.9393 97.5313 35.9375V34.0713C97.5313 33.0705 97.7727 32.3034 98.2564 31.7682C98.7392 31.2339 99.5664 30.9667 100.737 30.9667H112.363V30.0947C112.363 28.8506 111.795 28.2285 110.659 28.2285H97.8767V25.3071H111.348C112.787 25.3071 113.846 25.6725 114.527 26.4024C115.208 27.1332 115.548 28.2552 115.548 29.7703V39.0421H100.737ZM112.363 33.2603H101.891C101.459 33.2603 101.155 33.3615 100.979 33.5647C100.804 33.7679 100.716 34.0656 100.716 34.4577V35.1475C100.716 35.553 100.804 35.8612 100.979 36.0711C101.155 36.281 101.458 36.3859 101.891 36.3859H112.363V33.2603Z" fill="#EC6C1F"/>
<path d="M117.618 39.0421V25.3071H132.353C133.517 25.3071 134.339 25.5742 134.819 26.1085C135.299 26.6428 135.539 27.4108 135.539 28.4117V29.2837C135.539 29.8514 135.478 30.3084 135.357 30.6528C135.235 30.9982 135.076 31.2682 134.88 31.4648C134.683 31.6613 134.471 31.7968 134.241 31.8702C134.011 31.9447 133.794 31.9952 133.592 32.0219C133.809 32.0496 134.044 32.1002 134.296 32.1736C134.548 32.2481 134.783 32.3797 135 32.5696C135.218 32.7594 135.398 33.019 135.541 33.351C135.684 33.683 135.756 34.119 135.756 34.66V35.9385C135.756 36.9393 135.517 37.7073 135.041 38.2416C134.565 38.7759 133.741 39.043 132.571 39.043H117.619L117.618 39.0421ZM132.368 29.1616C132.368 28.7695 132.28 28.4718 132.104 28.2686C131.929 28.0654 131.625 27.9642 131.191 27.9642H120.803V30.8856H131.049C131.441 30.8856 131.759 30.8017 132.002 30.6318C132.246 30.463 132.368 30.1548 132.368 29.7083V29.1606V29.1616ZM132.57 34.4167C132.57 33.9979 132.441 33.7002 132.185 33.5237C131.928 33.3481 131.603 33.2594 131.21 33.2594H120.802V36.384H131.393C131.826 36.384 132.13 36.2791 132.306 36.0692C132.481 35.8593 132.569 35.5521 132.569 35.1456V34.4148L132.57 34.4167Z" fill="white"/>
<path d="M75.6437 25.288H3.55015V27.8135H75.6437V25.288Z" fill="white"/>
<path d="M75.6646 30.9438H3.3288V33.4779H75.6646V30.9438Z" fill="#EC6C1F"/>
<path d="M75.6646 36.3907H3.3288V38.9247H75.6646V36.3907Z" fill="white"/>
</svg>
